<svg xmlns="http://www.w3.org/2000/svg" width="466.61" height="331" viewBox="0 0 466.61 331"><g transform="translate(-1239.046 -373)"><g transform="translate(-135.811 32)"><circle cx="44.089" cy="44.089" r="44.089" transform="translate(1579 380.822)" fill="#ffa833"/><circle cx="44.089" cy="44.089" r="44.089" transform="translate(1623.089 341)" fill="#ffa833"/><circle cx="44.089" cy="44.089" r="44.089" transform="translate(1671.444 380.822)" fill="#ffa833"/><rect width="172.089" height="61.156" rx="22" transform="translate(1583.267 407.844)" fill="#ffa833"/></g><g transform="translate(1298 463)" fill="#cbcbcb" stroke="#3b3b3b" stroke-width="4"><rect width="340" height="205" rx="10" stroke="none"/><rect x="2" y="2" width="336" height="201" rx="8" fill="none"/></g><rect width="317" height="171" transform="translate(1310 473)" fill="#3b366a"/><g transform="translate(0 2)"><rect width="12" height="8" transform="translate(1319 480)" fill="#a8a8a8"/><rect width="12" height="8" transform="translate(1319 491)" fill="#a8a8a8"/><g transform="translate(0 88)"><rect width="12" height="8" transform="translate(1319 480)" fill="#a8a8a8"/><rect width="12" height="8" transform="translate(1319 491)" fill="#a8a8a8"/></g><g transform="translate(0 44)"><rect width="12" height="8" transform="translate(1319 480)" fill="#a8a8a8"/><rect width="12" height="8" transform="translate(1319 491)" fill="#a8a8a8"/></g><g transform="translate(0 132)"><rect width="12" height="8" transform="translate(1319 480)" fill="#a8a8a8"/><rect width="12" height="8" transform="translate(1319 491)" fill="#a8a8a8"/></g><g transform="translate(0 22)"><rect width="12" height="8" transform="translate(1319 480)" fill="#a8a8a8"/><rect width="12" height="8" transform="translate(1319 491)" fill="#a8a8a8"/></g><g transform="translate(0 110)"><rect width="12" height="8" transform="translate(1319 480)" fill="#a8a8a8"/><rect width="12" height="8" transform="translate(1319 491)" fill="#a8a8a8"/></g><g transform="translate(0 66)"><rect width="12" height="8" transform="translate(1319 480)" fill="#a8a8a8"/><rect width="12" height="8" transform="translate(1319 491)" fill="#a8a8a8"/></g></g><rect width="144" height="8" rx="4" transform="translate(1338 480)" fill="#ffa833"/><rect width="188" height="8" rx="4" transform="translate(1364 492)" fill="#ffa833"/><rect width="172" height="8" rx="4" transform="translate(1380 504)" fill="#ffa833"/><rect width="81" height="8" rx="4" transform="translate(1385 516)" fill="#ffa833"/><rect width="59" height="8" rx="4" transform="translate(1469 516)" fill="#ffa833"/><rect width="200" height="8" rx="4" transform="translate(1338 528)" fill="#ffa833"/><rect width="105" height="8" rx="4" transform="translate(1339 540)" fill="#ffa833"/><rect width="59" height="8" rx="4" transform="translate(1445 540)" fill="#ffa833"/><rect width="132" height="8" rx="4" transform="translate(1368 552)" fill="#ffa833"/><rect width="154" height="8" rx="4" transform="translate(1376 564)" fill="#ffa833"/><rect width="151" height="8" rx="4" transform="translate(1383 576)" fill="#ffa833"/><rect width="146" height="8" rx="4" transform="translate(1394 588)" fill="#ffa833"/><rect width="140" height="8" rx="4" transform="translate(1388 600)" fill="#ffa833"/><rect width="87" height="8" rx="4" transform="translate(1372 612)" fill="#ffa833"/><rect width="107" height="8" rx="4" transform="translate(1352 624)" fill="#ffa833"/><rect width="74" height="8" rx="4" transform="translate(1464 624)" fill="#ffa833"/><line y2="171" transform="translate(1562.5 473.5)" fill="none" stroke="#fff" stroke-width="5" opacity="0.13"/><rect width="62" height="171" transform="translate(1565 473)" fill="#373737"/><rect width="38" height="9" rx="4.5" transform="translate(1572 486)" fill="#ec43a3"/><rect width="38" height="9" rx="4.5" transform="translate(1580 502)" fill="#ec43a3"/><rect width="38" height="9" rx="4.5" transform="translate(1575 522)" fill="#ec43a3"/><rect width="38" height="9" rx="4.5" transform="translate(1582 545)" fill="#ec43a3"/><rect width="28" height="9" rx="4.5" transform="translate(1573 579)" fill="#ec43a3"/><rect width="47" height="9" rx="4.5" transform="translate(1573 599)" fill="#ec43a3"/><rect width="23" height="9" rx="4.5" transform="translate(1573 619)" fill="#ec43a3"/><path d="M1310,479.5h177.236L1406.3,649.634H1310Z" transform="translate(0 -6)" fill="#fff" opacity="0.16"/><circle cx="5" cy="5" r="5" transform="translate(1463 649)" fill="#fff"/><rect width="49" height="28" transform="translate(1444 666)" fill="#3b3b3b"/><rect width="111" height="11" rx="5.5" transform="translate(1413 693)" fill="#3b3b3b"/><g transform="translate(36.344 122)"><circle cx="22.044" cy="22.044" r="22.044" transform="translate(1579 360.911)" fill="#ffa833"/><circle cx="22.044" cy="22.044" r="22.044" transform="translate(1601.044 341)" fill="#ffa833"/><circle cx="22.044" cy="22.044" r="22.044" transform="translate(1625.222 360.911)" fill="#ffa833"/><rect width="86.044" height="30.578" rx="15.289" transform="translate(1581.133 374.422)" fill="#ffa833"/></g><g transform="translate(-179 37)"><g transform="translate(-1)"><rect width="38" height="10" rx="5" transform="translate(1493.106 362.362) rotate(38)" fill="#b50094"/><rect width="38" height="10" rx="5" transform="translate(1485.046 399.17) rotate(-30)" fill="#b50094"/></g><rect width="44" height="10" rx="5" transform="matrix(-0.438, 0.899, -0.899, -0.438, 1484.549, 368.722)" fill="#b50094"/><g transform="translate(-15)"><rect width="38" height="10" rx="5" transform="matrix(-0.788, 0.616, -0.616, -0.788, 1469.147, 370.242)" fill="#b50094"/><rect width="38" height="10" rx="5" transform="translate(1466.051 407.83) rotate(-150)" fill="#b50094"/></g></g></g></svg>