<svg xmlns="http://www.w3.org/2000/svg" width="508" height="334.303" viewBox="0 0 508 334.303"><defs><style>.a{fill:#303c6c;}.b{fill:#fff;}.c{fill:#f4976c;}</style></defs><g transform="translate(-1095 -136)"><rect class="a" width="334" height="226" rx="25" transform="translate(1095 136)"/><circle class="b" cx="23" cy="23" r="23" transform="translate(1168 226)"/><circle class="b" cx="23" cy="23" r="23" transform="translate(1239 226)"/><circle class="b" cx="23" cy="23" r="23" transform="translate(1310 226)"/><rect class="c" width="286" height="194" rx="25" transform="translate(1317 238)"/><g transform="translate(221.059 91.642)"><circle class="b" cx="17.358" cy="17.358" r="17.358" transform="translate(1168 226)"/><circle class="b" cx="17.358" cy="17.358" r="17.358" transform="translate(1221.583 226)"/><circle class="b" cx="17.358" cy="17.358" r="17.358" transform="translate(1275.167 226)"/></g><path class="a" d="M11134.011,797v58.045L11244.677,797Z" transform="translate(-9941.178 -437)"/><path class="c" d="M11134.011,797v43.3l102.742-43.3Z" transform="translate(-9729.178 -370)"/></g></svg>