<svg xmlns="http://www.w3.org/2000/svg" width="20.267" height="21.927" viewBox="0 0 20.267 21.927"><g transform="translate(0 0.928)" fill="#ffd447" stroke-linecap="round"><path d="M 10.9998025894165 19.99970436096191 C 8.32877254486084 19.99970436096191 5.817612648010254 18.95953369140625 3.928892612457275 17.07081413269043 C 2.040172576904297 15.18209457397461 1.000012516975403 12.67092418670654 1.000012516975403 9.999894142150879 C 1.000012516975403 5.602867603302002 3.844255685806274 1.814446568489075 7.874626159667969 0.4959943890571594 C 7.298879623413086 1.917923927307129 7.000112533569336 3.444257497787476 7.000112533569336 5.000404357910156 C 7.000112533569336 11.33886051177979 11.93965435028076 16.54523849487305 18.17168807983398 16.97192001342773 C 16.30775833129883 18.89455413818359 13.74196434020996 19.99970436096191 10.9998025894165 19.99970436096191 Z" stroke="none"/><path d="M 10.9998025894165 18.99970436096191 C 12.74028205871582 18.99970436096191 14.40164375305176 18.50510406494141 15.81843852996826 17.60643196105957 C 10.18332290649414 16.18355941772461 6.000112533569336 11.07124710083008 6.000112533569336 5.000404357910156 C 6.000112533569336 4.09805154800415 6.092903614044189 3.204809427261353 6.274824142456055 2.333244800567627 C 3.692457914352417 3.925983428955078 2.000012636184692 6.781882762908936 2.000012636184692 9.999894142150879 C 2.000012636184692 12.4038143157959 2.936152458190918 14.66386413574219 4.635992527008057 16.36371421813965 C 6.335842609405518 18.06355476379395 8.595882415771484 18.99970436096191 10.9998025894165 18.99970436096191 M 10.9998025894165 20.99970436096191 C 8.061662673950195 20.99970436096191 5.29938268661499 19.85552406311035 3.221782445907593 17.77792358398438 C 1.144192576408386 15.70032405853271 1.255126971955178e-05 12.93803405761719 1.255126971955178e-05 9.999894142150879 C 1.255126971955178e-05 4.406693935394287 4.183912754058838 -0.2911058664321899 9.732122421264648 -0.9276158809661865 C 8.599362373352051 0.8401440978050232 8.000112533569336 2.889484167098999 8.000112533569336 5.000404357910156 C 8.000112533569336 11.06570434570313 12.93460273742676 16.00019454956055 18.99991226196289 16.00019454956055 C 19.42306327819824 16.00019454956055 19.84940338134766 15.9758939743042 20.26710319519043 15.9279842376709 C 18.23112297058105 19.10430335998535 14.76637268066406 20.99970436096191 10.9998025894165 20.99970436096191 Z" stroke="none" fill="#fff8d5"/></g></svg>