<svg xmlns="http://www.w3.org/2000/svg" width="271.5" height="48.767" viewBox="0 0 271.5 48.767"><g transform="translate(-251 -713)"><g transform="translate(-148 -17)"><path d="M52.837,15.065a20.11,20.11,0,0,1-5.805,1.591,10.125,10.125,0,0,0,4.444-5.592,20.232,20.232,0,0,1-6.418,2.454,10.115,10.115,0,0,0-17.221,9.218A28.7,28.7,0,0,1,7,12.176,10.119,10.119,0,0,0,10.132,25.67,10.078,10.078,0,0,1,5.554,24.4c0,.042,0,.085,0,.128a10.115,10.115,0,0,0,8.108,9.91A10.162,10.162,0,0,1,11,34.8a10.014,10.014,0,0,1-1.9-.182,10.118,10.118,0,0,0,9.441,7.019A20.394,20.394,0,0,1,3.574,45.819,28.6,28.6,0,0,0,19.067,50.36c18.591,0,28.756-15.4,28.756-28.756q0-.657-.028-1.309A20.47,20.47,0,0,0,52.837,15.065Z" transform="translate(395.426 723.674)" fill="#1e1e1e"/></g><g transform="translate(361.946 713)"><g transform="translate(0 0)"><path d="M10.332,42.889V13.965H.361V42.889Zm0-39.176C10.272,1.125,8.348-.846,5.222-.846S.053,1.125.053,3.713c0,2.532,1.983,4.56,5.05,4.56h.059C8.348,8.273,10.332,6.245,10.332,3.713ZM26.6,42.889V26.41a6.066,6.066,0,0,1,.36-2.393,5.959,5.959,0,0,1,5.613-3.588c3.959,0,6.442,2.015,6.442,5.981V42.889H49.053V25.969c0-9.064-5.4-13.282-12.6-13.282-5.9,0-8.493,2.958-9.932,4.972l.072-3.868H16.577c.144,2.769,0,29.1,0,29.1Z" transform="translate(-0.053 0.846)" fill="#1e1e1e" fill-rule="evenodd"/></g></g><path d="M25,0a25,25,0,0,0-7.9,48.721c1.25.229,1.706-.543,1.706-1.2,0-.6-.023-2.567-.035-4.654-6.952,1.511-8.421-2.948-8.421-2.948-1.138-2.887-2.776-3.656-2.776-3.656-2.272-1.55.172-1.52.172-1.52a5.247,5.247,0,0,1,3.832,2.576c2.231,3.821,5.853,2.716,7.275,2.075a5.345,5.345,0,0,1,1.587-3.339C14.888,35.422,9.05,33.276,9.05,23.7a9.679,9.679,0,0,1,2.571-6.709,9.005,9.005,0,0,1,.247-6.619s2.1-.671,6.876,2.563a23.666,23.666,0,0,1,12.515,0c4.77-3.238,6.87-2.563,6.87-2.563a8.968,8.968,0,0,1,.25,6.616,9.65,9.65,0,0,1,2.57,6.709c0,9.6-5.847,11.719-11.417,12.338a5.955,5.955,0,0,1,1.7,4.626c0,3.342-.034,6.036-.034,6.86,0,.665.455,1.443,1.721,1.2A25,25,0,0,0,25,0Z" transform="translate(472.5 713)" fill="#1e1e1e"/></g></svg>