<svg xmlns="http://www.w3.org/2000/svg" width="33.909" height="33.909" viewBox="0 0 33.909 33.909"><g transform="translate(-1695.546 -77.046)"><g transform="translate(1702.171 83.468)" fill="#ffd447" stroke="#ffbd39" stroke-width="2"><ellipse cx="10.532" cy="10.532" rx="10.532" ry="10.532" stroke="none"/><ellipse cx="10.532" cy="10.532" rx="9.532" ry="9.532" fill="none"/></g><g transform="translate(1696.563 78.063)"><g transform="translate(15.905)"><line y2="3.631" transform="matrix(1, -0.017, 0.017, 1, 0, 0)" fill="none" stroke="#ffbd39" stroke-linecap="round" stroke-width="2"/><line y2="3.631" transform="matrix(1, -0.017, 0.017, 1, 0, 28.243)" fill="none" stroke="#ffbd39" stroke-linecap="round" stroke-width="2"/></g><g transform="translate(31.874 15.905) rotate(90)"><line y2="3.631" transform="matrix(1, -0.017, 0.017, 1, 0, 0)" fill="none" stroke="#ffbd39" stroke-linecap="round" stroke-width="2"/><line y2="3.631" transform="matrix(1, -0.017, 0.017, 1, 0, 28.243)" fill="none" stroke="#ffbd39" stroke-linecap="round" stroke-width="2"/></g><g transform="translate(4.69 27.229) rotate(-135)"><line y2="3.631" transform="matrix(1, -0.017, 0.017, 1, 0, 0)" fill="none" stroke="#ffbd39" stroke-linecap="round" stroke-width="2"/><line y2="3.631" transform="matrix(1, -0.017, 0.017, 1, 0, 28.243)" fill="none" stroke="#ffbd39" stroke-linecap="round" stroke-width="2"/></g><g transform="translate(27.229 27.184) rotate(135)"><line y2="3.631" transform="matrix(1, -0.017, 0.017, 1, 0, 0)" fill="none" stroke="#ffbd39" stroke-linecap="round" stroke-width="2"/><line y2="3.631" transform="matrix(1, -0.017, 0.017, 1, 0, 28.243)" fill="none" stroke="#ffbd39" stroke-linecap="round" stroke-width="2"/></g></g></g></svg>